<?xml version="1.0" encoding="UTF-8"?>
<svg width="180px" height="28px" viewBox="0 0 180 28" version="1.1" xmlns="http://www.w3.org/2000/svg" xmlns:xlink="http://www.w3.org/1999/xlink">
    <!-- Generator: Sketch 48 (47235) - http://www.bohemiancoding.com/sketch -->
    <title>logo</title>
    <desc>Created with Sketch.</desc>
    <defs>
        <polygon id="path-1" points="0 0.0320934066 27.198919 0.0320934066 27.198919 27.2307206 0 27.2307206"></polygon>
        <polygon id="path-3" points="0 27.6923077 180 27.6923077 180 0.461538462 0 0.461538462"></polygon>
    </defs>
    <g id="Homepage" stroke="none" stroke-width="1" fill="none" fill-rule="evenodd" transform="translate(-250.000000, -26.000000)">
        <g id="logo" transform="translate(250.000000, 26.000000)">
            <g id="Group-3">
                <mask id="mask-2" fill="white">
                    <use xlink:href="#path-1"></use>
                </mask>
                <g id="Clip-2"></g>
                <path d="M10.1157445,9.17307363 L10.6749478,9.32235659 L10.1767706,9.61727555 C9.94457967,9.75488819 9.69828709,9.87815604 9.46026099,9.99753379 C8.92828846,10.2640063 8.42597802,10.5156478 8.09799313,10.8993099 C7.78848626,11.2606038 7.63142308,11.7770159 7.44956044,12.3751203 C7.36057418,12.6673648 7.26891346,12.9695777 7.15075137,13.2820022 L6.84902473,14.0797179 L6.68466758,13.242858 C6.41649313,11.8776725 6.76611676,10.5859129 7.61975275,9.78746786 C8.296875,9.15410934 9.20691758,8.93042802 10.1157445,9.17307363 M21.8636332,14.9061231 C20.5701717,17.9357893 18.1668132,19.9931712 15.7624821,21.7653593 C14.7230934,22.531711 14.1580549,22.9180475 13.5935027,22.9180475 C13.0184959,22.9180475 12.4439753,22.5173662 11.3681168,21.7099253 C9.25651648,20.1244624 7.11403846,18.3007302 5.72624176,15.6958154 C4.64625,13.6690681 4.53927198,11.8271011 5.3992294,10.0646382 C6.28374313,8.25160385 7.76295742,7.32527143 9.7960261,7.31165604 C11.7736607,7.28734286 13.3095247,8.20419313 14.366419,10.0060434 C14.5174038,10.2642495 14.3632582,10.5606272 14.2125165,10.7899005 L14.0381909,11.0546712 L13.8276387,10.8178607 C13.7661264,10.748325 13.7038846,10.6797618 13.6416429,10.6109555 C13.4935755,10.4473277 13.3455082,10.2837 13.2057074,10.1132646 C11.7722019,8.37171099 9.59860302,7.83122885 7.92050687,8.79913681 C6.1614478,9.81421236 5.44153434,11.9921876 6.16971429,14.0957646 C6.75201511,15.777994 7.82106593,17.2717962 9.53465934,18.7972055 C10.6922102,19.8275984 11.9601429,20.7755695 13.1865,21.6924198 C13.3610687,21.8227385 13.7459464,21.8723374 13.8315288,21.8186052 C16.7585934,19.8220063 19.5035522,17.7534404 20.9244148,14.4123223 C21.5251937,13.0004555 21.4731635,11.618494 20.7700261,10.3043662 C19.8259451,8.53898571 17.7038901,7.86575357 15.7240673,8.70285659 C15.5050055,8.7952467 15.2869162,8.88933874 15.0685838,8.98343077 L14.2066813,9.35469313 L14.5998255,8.70504478 C15.4950371,7.22607363 18.0644547,6.85189368 19.8869712,7.93553242 C22.1753283,9.29682775 23.0065962,12.2285118 21.8636332,14.9061231 M13.5993379,25.3021986 C7.16412363,25.3021986 1.92852198,20.0668401 1.92852198,13.631869 C1.92852198,7.19641154 7.16412363,1.96105302 13.5993379,1.96105302 C20.0345522,1.96105302 25.2701538,7.19665467 25.2701538,13.631869 C25.2701538,20.0668401 20.0347953,25.3021986 13.5993379,25.3021986 M13.5993379,0.0320447802 C6.10066484,0.0320447802 0,6.13270962 0,13.6313827 C0,21.130542 6.10066484,27.2307206 13.5993379,27.2307206 C21.0977679,27.2307206 27.1981896,21.130542 27.198919,13.6313827 C27.198919,6.13270962 21.098011,0.0320447802 13.5993379,0.0320447802" id="Fill-1" fill="#FE5D39" mask="url(#mask-2)"></path>
            </g>
            <mask id="mask-4" fill="white">
                <use xlink:href="#path-3"></use>
            </mask>
            <g id="Clip-5"></g>
            <path d="M86.2626584,16.6149265 L97.216531,16.6149265 L97.216531,12.4752675 L86.2626584,12.4752675 L86.2626584,16.6149265 Z M77.9372057,11.3068193 C74.7399889,10.3414201 74.7399889,9.81437229 74.7399889,9.39019285 C74.7399889,8.83528992 75.3477344,8.47683874 76.2893604,8.47683874 C77.7150271,8.47683874 78.5388273,9.03271905 79.22496,10.4596821 L79.5127879,11.0566121 L84.4705317,8.16236931 L84.2169981,7.6519368 C82.6536639,4.50284431 79.8383396,2.76923077 76.2893604,2.76923077 C72.6191259,2.76923077 68.9033289,5.08291457 68.9033289,9.50405669 C68.9033289,13.8795067 72.3166004,15.3902794 75.2901688,16.2178691 C78.4575006,17.0904179 79.0206634,17.4930952 79.0206634,18.1880067 C79.0206634,19.0380759 77.8644526,19.2159576 76.8946563,19.2159576 C75.1005699,19.2159576 73.932601,18.4472546 73.2192777,16.7959846 L72.9466373,16.1646023 L67.9225094,19.0698405 L68.1062294,19.5541283 C69.4013325,22.9658895 72.551517,24.9230769 76.7503749,24.9230769 C81.6750491,24.9230769 84.8575683,22.2570505 84.8575683,18.1303417 C84.8580582,13.390332 81.0205162,12.2350783 77.9372057,11.3068193 Z M58.84356,24.5208884 L64.6804649,24.5208884 L64.6804649,3.17190802 L58.84356,3.17190802 L58.84356,24.5208884 Z M47.8769495,10.8782417 L42.7597369,10.8782417 L42.7597369,3.17190802 L36.9230769,3.17190802 L36.9230769,24.5208884 L42.7597369,24.5208884 L42.7597369,16.527696 L47.8769495,16.527696 L47.8769495,24.5208884 L53.7136095,24.5208884 L53.7136095,3.17190802 L47.8769495,3.17190802 L47.8769495,10.8782417 Z M174.064131,11.7529896 C173.426256,9.44712477 171.633394,8.61244911 169.840287,8.61244911 C167.569019,8.61244911 166.054922,9.72567578 165.497393,11.7529896 L174.064131,11.7529896 Z M170.398061,18.9862752 C172.031944,18.9862752 173.426011,18.3504948 174.222865,17.4762355 L179.004728,20.2187413 C177.052152,22.9216635 174.103815,24.3124638 170.317714,24.3124638 C163.503909,24.3124638 159.27982,19.7422724 159.27982,13.8203757 C159.27982,7.89799019 163.582786,3.32706582 169.879481,3.32706582 C175.697279,3.32706582 180,7.81906741 180,13.8203757 C180,14.6550513 179.920633,15.4496547 179.760674,16.2046746 L165.614729,16.2046746 C166.37288,18.2710833 168.206405,18.9862752 170.398061,18.9862752 Z M158.085396,3.48564442 L158.085396,10.2424612 C155.61522,9.84491516 152.109109,10.8381694 152.109109,14.7733133 L152.109109,23.7565835 L146.132087,23.7565835 L146.132087,3.88319047 L152.109109,3.88319047 L152.109109,7.42054399 C152.906453,4.7574497 155.575047,3.48564442 158.085396,3.48564442 Z M135.772977,13.819887 C135.772977,10.8386581 133.780228,8.97041159 131.032023,8.97041159 C128.282103,8.97041159 126.290579,10.8386581 126.290579,13.819887 C126.290579,16.8006271 128.283083,18.669118 131.032023,18.669118 C133.780228,18.669118 135.772977,16.8008715 135.772977,13.819887 Z M141.750244,3.88294613 L141.750244,23.7563391 L135.773222,23.7563391 L135.773222,21.8880926 C134.458277,23.3983766 132.506191,24.3119751 129.836373,24.3119751 C124.616033,24.3119751 120.313557,19.7417838 120.313557,13.819887 C120.313557,7.89750151 124.616033,3.32657714 129.836373,3.32657714 C132.506191,3.32657714 134.458277,4.24090862 135.773222,5.75168134 L135.773222,3.88343482 L141.750244,3.88294613 Z M99.752601,13.819887 C99.752601,7.89750151 104.255209,3.32657714 110.311843,3.32657714 C114.176576,3.32657714 117.60381,5.35389095 119.317305,8.41428694 L114.097454,11.4346107 C113.419405,10.0440547 111.985409,9.20889035 110.231986,9.20889035 C107.64227,9.20889035 105.729378,11.0771369 105.729378,13.819887 C105.729378,16.5621484 107.64227,18.4303949 110.231986,18.4303949 C111.985409,18.4303949 113.460068,17.5957192 114.097454,16.2041859 L119.317305,19.1854148 C117.60381,22.2856387 114.216749,24.3119751 110.311843,24.3119751 C104.254964,24.3122194 99.752601,19.7417838 99.752601,13.819887 Z" id="Fill-4" fill="#4E5051" mask="url(#mask-4)"></path>
        </g>
    </g>
</svg>