<?xml version="1.0" encoding="UTF-8"?>
<svg width="1920px" height="1080px" viewBox="0 0 1920 1080" version="1.1" xmlns="http://www.w3.org/2000/svg" xmlns:xlink="http://www.w3.org/1999/xlink">
    <!-- Generator: Sketch 51.3 (57544) - http://www.bohemiancoding.com/sketch -->
    <title>Apple TV</title>
    <desc>Created with Sketch.</desc>
    <defs></defs>
    <g id="Apple-TV" stroke="none" stroke-width="1" fill="none" fill-rule="evenodd">
        <path d="M-639.630243,-954.492889 L-70.8022435,-954.492889 C12.5927538,-954.492889 80.1977565,-886.887886 80.1977565,-803.492889 L80.1977565,147.456741 C80.1977565,201.520771 36.3702014,245.348326 -17.6938278,245.348326 C-53.4518269,245.348326 -86.3648108,225.851211 -103.54561,194.491131 C-206.655331,6.28503682 -313.717784,-163.629296 -424.732921,-315.251894 C-525.331327,-452.647497 -633.022866,-580.277748 -747.807538,-698.142647 L-747.80754,-698.142645 C-805.990871,-757.887316 -804.725155,-853.486851 -744.980484,-911.670183 C-716.786031,-939.127815 -678.985659,-954.492889 -639.630243,-954.492889 Z" id="Rectangle-2" fill="#D5E8FD" transform="translate(-473.577628, -198.155826) rotate(71.000000) translate(473.577628, 198.155826) "></path>
        <path d="M1603.36976,365.507111 L2172.19776,365.507111 C2255.59275,365.507111 2323.19776,433.112114 2323.19776,516.507111 L2323.19776,1467.45674 C2323.19776,1521.52077 2279.3702,1565.34833 2225.30617,1565.34833 C2189.54817,1565.34833 2156.63519,1545.85121 2139.45439,1514.49113 C2036.34467,1326.28504 1929.28222,1156.3707 1818.26708,1004.74811 C1717.66867,867.352503 1609.97713,739.722252 1495.19246,621.857353 L1495.19246,621.857355 C1437.00913,562.112684 1438.27484,466.513149 1498.01952,408.329817 C1526.21397,380.872185 1564.01434,365.507111 1603.36976,365.507111 Z" id="Rectangle-2-Copy" fill="#D5E8FD" transform="translate(1769.422372, 1121.844174) rotate(100.000000) translate(-1769.422372, -1121.844174) "></path>
        <circle id="Oval-2" fill="#283583" fill-rule="nonzero" cx="19.5" cy="744.5" r="75.5"></circle>
        <g id="Form" transform="translate(1742.413682, 308.145330)" fill-rule="nonzero">
            <rect id="Rectangle-2" fill="#D5E8FD" transform="translate(120.208153, 241.208153) rotate(-45.000000) translate(-120.208153, -241.208153) " x="-26.2918472" y="217.708153" width="293" height="47" rx="21"></rect>
            <rect id="Rectangle-2" fill-opacity="0.2" fill="#000000" opacity="0.2" transform="translate(200.515765, 281.900541) rotate(-45.000000) translate(-200.515765, -281.900541) " x="127.119841" y="258.400541" width="146.791847" height="47" rx="21"></rect>
            <circle id="Oval" fill="#283583" cx="62.5" cy="385.5" r="24.5"></circle>
            <circle id="Oval" fill="#000000" cx="63" cy="176" r="13"></circle>
            <rect id="Rectangle-2" fill="#D5E8FD" transform="translate(153.515765, 89.515765) rotate(-45.000000) translate(-153.515765, -89.515765) " x="80.119841" y="66.0157646" width="146.791847" height="47" rx="21"></rect>
        </g>
        <g id="Form-Copy" transform="translate(-154.000000, 846.000000)" fill-rule="nonzero">
            <rect id="Rectangle-2" fill="#D5E8FD" transform="translate(120.208153, 241.208153) rotate(-45.000000) translate(-120.208153, -241.208153) " x="-26.2918472" y="217.708153" width="293" height="47" rx="21"></rect>
            <rect id="Rectangle-2" fill-opacity="0.2" fill="#000000" opacity="0.2" transform="translate(200.515765, 281.900541) rotate(-45.000000) translate(-200.515765, -281.900541) " x="127.119841" y="258.400541" width="146.791847" height="47" rx="21"></rect>
            <rect id="Rectangle-2" fill-opacity="0.2" fill="#000000" opacity="0.2" transform="translate(299.980231, 96.404546) rotate(-45.000000) translate(-299.980231, -96.404546) " x="257.040151" y="72.9045456" width="85.880159" height="47" rx="21"></rect>
            <circle id="Oval" fill-opacity="0.2" fill="#000000" opacity="0.2" cx="309.5" cy="188.5" r="24.5"></circle>
            <circle id="Oval" fill-opacity="0.2" fill="#000000" cx="258" cy="13" r="13"></circle>
            <rect id="Rectangle-2" fill="#D5E8FD" transform="translate(153.515765, 89.515765) rotate(-45.000000) translate(-153.515765, -89.515765) " x="80.119841" y="66.0157646" width="146.791847" height="47" rx="21"></rect>
        </g>
    </g>
</svg>